<svg xmlns="http://www.w3.org/2000/svg" viewBox="0 0 24 24">
				<title>ic24-rotate</title>
				<g fill="#000000">
					<path
						fill-rule="evenodd"
						d="M4.983 11a1 1 0 0 1 1.008.867l.009.116.003.224a6 6 0 0 0 6.554 5.768l-.264-.268a1 1 0 0 1 1.414-1.414l2 2a1 1 0 0 1 0 1.414l-2 2a1 1 0 0 1-1.414-1.414l.318-.316A8.1 8.1 0 0 1 12 20c-4.231 0-7.711-3.29-7.983-7.49l-.013-.252L4 12.017A1 1 0 0 1 4.983 11zm6.724-8.707a1 1 0 0 1 .083 1.32l-.083.094-.318.316A8 8 0 0 1 20 12a1 1 0 0 1-1.999 0 6 6 0 0 0-6.557-5.975l.264.268a1 1 0 0 1-1.32 1.497l-.094-.083-2-2a1 1 0 0 1-.083-1.32l.083-.094 2-2a1 1 0 0 1 1.414 0z"
					></path>
				</g>
			</svg>